<?xml version="1.0" standalone="no"?><!DOCTYPE svg PUBLIC "-//W3C//DTD SVG 1.1//EN" "http://www.w3.org/Graphics/SVG/1.1/DTD/svg11.dtd"><svg t="1567388668375" class="icon" viewBox="0 0 1024 1024" version="1.1" xmlns="http://www.w3.org/2000/svg" p-id="16053" xmlns:xlink="http://www.w3.org/1999/xlink" width="200" height="200"><defs><style type="text/css"></style></defs><path d="M885.013972 512C885.013972 305.990071 718.009929 138.986028 512 138.986028 305.990071 138.986028 138.986028 305.990071 138.986028 512 138.986028 718.009929 305.990071 885.013972 512 885.013972 718.009929 885.013972 885.013972 718.009929 885.013972 512ZM64.383234 512C64.383234 264.788087 264.788087 64.383234 512 64.383234 759.211913 64.383234 959.616766 264.788087 959.616766 512 959.616766 759.211913 759.211913 959.616766 512 959.616766 264.788087 959.616766 64.383234 759.211913 64.383234 512Z" p-id="16054"></path><path d="M571.682236 278.07248C587.690713 280.538752 603.699188 284.275162 619.707784 289.28173 651.258707 299.149045 680.08929 314.654592 706.200399 335.798837L636.027146 411.91774C616.987796 401.110681 599.036678 392.888042 582.173253 387.249577 565.309829 381.611111 546.270765 378.791921 525.055489 378.791921 484.800864 378.791921 464.673852 389.128952 464.673852 409.803325 464.673852 420.610384 471.881498 428.833023 486.297006 434.471488 500.712513 440.109954 521.247505 447.15793 547.902595 455.615628L609.1002 477.464572C645.002974 488.741503 672.609617 504.481983 691.920958 524.686484 711.232298 544.890984 720.887824 570.968496 720.887824 602.9198 720.887824 622.184556 716.264051 640.744227 707.016368 658.599367 697.768683 676.454507 684.169351 692.077521 666.217965 705.468877 648.266577 718.860232 626.099666 729.549663 599.716567 737.537488 590.820182 740.230984 581.475417 742.470349 571.682236 744.255589L571.682236 795.490619 452.317764 795.490619 452.317764 744.987042C435.776602 742.356683 419.088148 738.581362 402.252295 733.661062 366.07753 723.08894 333.031154 706.526196 303.112176 683.972334L383.077046 600.805386C403.204359 613.961805 424.555309 624.651235 447.130539 632.873997 469.705768 641.096759 491.328706 645.208079 512 645.208079 536.479165 645.208079 553.478329 642.388889 562.998004 636.750423 572.517678 631.111958 577.277445 623.124251 577.277445 612.787065 577.277445 607.148599 575.645525 602.449949 572.381637 598.690972 569.117748 594.931995 564.221989 591.408007 557.694212 588.118902 551.166434 584.829798 543.142828 581.658208 533.623154 578.604039 524.103479 575.54987 513.08802 572.143349 500.576447 568.384372L434.483034 544.421014C419.251554 539.722293 404.836262 533.496581 391.236727 525.743691 377.637191 517.990801 365.805772 508.828432 355.742116 498.256309 345.67846 487.684187 337.654853 475.585161 331.671058 461.95887 325.687262 448.332578 322.695409 433.296896 322.695409 416.851372 322.695409 397.116743 327.591169 378.67454 337.382834 361.524208 347.1745 344.373875 360.909825 329.338193 378.589222 316.416709 396.268618 303.495226 417.483576 293.275661 442.234731 285.757708 445.544675 284.75234 448.905686 283.814197 452.317764 282.943277L452.317764 228.509381 571.682236 228.509381 571.682236 278.07248 571.682236 278.07248Z" p-id="16055"></path></svg>