<?xml version="1.0" encoding="utf-8"?>
<!-- Generator: Adobe Illustrator 22.1.0, SVG Export Plug-In . SVG Version: 6.00 Build 0)  -->
<svg version="1.1" id="图层_1" xmlns="http://www.w3.org/2000/svg" xmlns:xlink="http://www.w3.org/1999/xlink" x="0px" y="0px"
	 viewBox="0 0 188.2 24.1" style="enable-background:new 0 0 188.2 24.1;" xml:space="preserve">
<style type="text/css">
	.st0{fill:#878A8B;}
	.st1{fill:#B12028;}
</style>
<title>资源 1</title>
<g>
	<path class="st0" d="M126.3,16.3c0,0.1,0.3,0.4,0.3,0.4c0.3-0.2,0.7-0.3,1-0.5v5.7h3v-0.5h4.5v0.5h3v-9.1h-4.6
		c2-1.6,3.5-3.7,4.8-5.8V4.4h-5.7l0.4-1.3l-2.8-0.9c-0.9,2-2.6,5.2-4.1,6.9l0.2,0.3l1.3,1.4c0.3-0.3,0.7-0.7,1-1
		c0.6,0.5,1.4,1.3,2,1.8c-1.1,0.8-3.8,2.2-5.3,2.9L126.3,16.3z M135.3,18.9h-5.1v-3.5h5.1V18.9z M131.3,11.2c0,0,1.2-1.1,1.4-1.6
		c-0.7-0.6-2.2-1.9-2.2-1.9c0.2-0.3,0.3-0.4,0.4-0.7h4.3C134.1,8.4,132.8,10,131.3,11.2"/>
	<path class="st0" d="M126.1,15.7v-2.2h-2.4v-1.9h2v-2V9.1V9h-4.8l0.6-1.4h5.2V5.5h-3.8c0.3-0.5,0.4-1.6,0.6-2.1l-2.3-0.7
		c-0.9,2.6-1.6,4.7-3,6.6l1.5,1.4l0.3,0.9h0.9v1.9h-2.1v2.2h2.1v3c0,0.6,0,0.9-0.8,1.3l1.2,2.1c2-0.9,3.3-1.8,4.6-2.9l-0.2-1.8
		l-2,1.2v-3h1.9L126.1,15.7z"/>
	<path class="st0" d="M153.5,16.5h5.6v-2.1h-6.5c0-0.3,0-0.9,0-1.2h6.8V11h-6.8v-0.9h6V8h-6V7.1h6.6V5h-3.3l0.9-1.4L155,2.4
		c-0.4,0.7-1.4,1.6-2.7,2.6h-3.1l0.4-0.5c-0.3-0.4-1.7-2-2.1-2.5l-2,1.7l0.9,1.4h-3.6v2.1h6.6v0.9h-6V10h6v1h-7.1v2.2h7.1
		c0,0.3,0,0.9,0,1.2h-6.8v2.1h5.8c-1,0.9-2.6,2.9-6.3,3.5l0.8,1.8c4.3-0.9,6.9-2.2,8.3-3.7c1.6,1.6,4.3,3,8.1,3.7l0.8-2
		C156.3,18.9,154.8,17.5,153.5,16.5"/>
	<path class="st1" d="M113.6,2.4h-5.2l-3.8,6.2l-3.8-6.2h-5.2c3.1,4.9,6.1,9.9,6.4,10.4v8.9h5.2v-8.8l0,0l0,0l0,0
		C107.3,12.7,110.4,7.5,113.6,2.4"/>
	<path class="st1" d="M79.9,8.8c0-3.5-2.9-6.4-6.5-6.4c-1.4,0-2.8,0.5-3.8,1.3c-1.1-0.9-2.4-1.3-3.8-1.3c-3.6,0-6.5,2.9-6.5,6.5
		v12.8h5.2V8.9l0,0c0-0.7,0.6-1.3,1.3-1.3s1.3,0.5,1.3,1.2c0,0,0,0,0,0.1l0,0v12.8h5.2V8.9l0,0c0,0,0,0,0-0.1c0-0.7,0.6-1.2,1.3-1.2
		s1.3,0.6,1.3,1.3l0,0v12.8H80L79.9,8.8L79.9,8.8L79.9,8.8z"/>
	<path class="st1" d="M23.1,7.2v9.6c0,2.6,2.1,4.8,4.8,4.8h10.6l0,0v-5.2h-9.4c-0.5,0-0.9-0.4-0.9-0.9l0,0c0-0.5,0.4-0.9,0.9-0.9
		h8.4l0,0V9.5h-8.4c-0.5,0-0.9-0.4-0.9-0.9s0.4-0.9,0.9-0.9h9.4l0,0V2.4H28C25.3,2.4,23.1,4.6,23.1,7.2"/>
	<path class="st1" d="M20.6,8.8c0-3.5-2.9-6.4-6.5-6.4c-1.4,0-2.8,0.5-3.8,1.3C9.2,2.9,7.9,2.4,6.5,2.4C2.9,2.4,0,5.3,0,8.9v12.8
		h5.2V8.9l0,0c0-0.7,0.6-1.3,1.3-1.3s1.3,0.5,1.3,1.2c0,0,0,0,0,0.1l0,0v12.8H13V8.9l0,0c0,0,0,0,0-0.1c0-0.7,0.6-1.2,1.3-1.2
		s1.3,0.6,1.3,1.3l0,0v12.8h5.2L20.6,8.8L20.6,8.8L20.6,8.8z"/>
	<path class="st1" d="M88.9,2.4c-3.6,0-6.5,2.9-6.5,6.5l0,0v12.8h5.2v-3.8h1.3v-5.2h-1.3V8.9l0,0c0-0.7,0.6-1.3,1.3-1.3
		s1.3,0.6,1.3,1.3l0,0v12.8h5.2V8.9l0,0C95.3,5.3,92.5,2.4,88.9,2.4"/>
	<path class="st1" d="M47.4,2.4L47.4,2.4h-1.1l0,0h-5.2v19.3h5.2V7.6h1l0,0c0,0,0,0,0.1,0c2.5,0,4.5,2,4.5,4.5s-2,4.5-4.5,4.5
		c0,0,0,0-0.1,0v5.2c0,0,0,0,0.1,0c5.4,0,9.6-4.3,9.6-9.6S52.7,2.4,47.4,2.4"/>
</g>
</svg>
