<?xml version="1.0" standalone="no"?><!DOCTYPE svg PUBLIC "-//W3C//DTD SVG 1.1//EN" "http://www.w3.org/Graphics/SVG/1.1/DTD/svg11.dtd"><svg t="1559725112473" class="icon" style="" viewBox="0 0 1073 1024" version="1.1" xmlns="http://www.w3.org/2000/svg" p-id="49102" xmlns:xlink="http://www.w3.org/1999/xlink" width="209.5703125" height="200"><defs><style type="text/css"></style></defs><path d="M530.616422 1023.329264a31.023714 31.023714 0 0 1-17.025872-10.552777L7.836924 413.969851A32.855038 32.855038 0 0 1 3.902297 377.143922L195.194046 17.461038a32.909434 32.909434 0 0 1 29.011071-17.461038h625.406162a32.855038 32.855038 0 0 1 29.011071 17.461038L1069.986627 377.143922a32.87317 32.87317 0 0 1-3.934626 36.825929L559.772549 1013.392972a29.935799 29.935799 0 0 1-29.156127 9.936292z m-8.41321-41.703414zM52.894743 391.051105l483.360706 572.279638a0.888464 0.888464 0 0 0 1.378026 0l483.360706-572.279638a0.870332 0.870332 0 0 0 0.108792-1.015388L840.092022 49.681459a0.924728 0.924728 0 0 0-0.815937-0.47143H234.594707a0.924728 0.924728 0 0 0-0.797804 0.47143L52.785952 390.035717a0.870332 0.870332 0 0 0 0.108791 1.015388z" fill="#766CFF" p-id="49103"></path><path d="M294.683888 301.443159m48.412225 0l400.987396 0q48.412225 0 48.412225 48.412225l0 0q0 48.412225-48.412225 48.412224l-400.987396 0q-48.412225 0-48.412225-48.412224l0 0q0-48.412225 48.412225-48.412225Z" fill="#FFCE00" p-id="49104"></path></svg>