<?xml version="1.0" standalone="no"?><!DOCTYPE svg PUBLIC "-//W3C//DTD SVG 1.1//EN" "http://www.w3.org/Graphics/SVG/1.1/DTD/svg11.dtd"><svg t="1563501641884" class="icon" viewBox="0 0 1024 1024" version="1.1" xmlns="http://www.w3.org/2000/svg" p-id="641" xmlns:xlink="http://www.w3.org/1999/xlink" width="200" height="200"><defs><style type="text/css"></style></defs><path d="M553.98912 829.60384H205.95712c-9.39008 0-16.61952-7.94624-16.61952-16.61952V151.7568c0-9.3952 7.95136-16.62464 16.61952-16.62464h581.7344c9.40032 0 16.61952 7.95136 16.61952 16.62464v313.2672c0 13.73184 11.56608 25.2928 25.2928 25.2928 13.73696 0 25.2928-11.56096 25.2928-25.2928V151.7568c0-36.85376-30.35136-67.20512-67.21024-67.20512H205.95712c-36.85376 0-67.20512 30.35136-67.20512 67.20512v661.95456c0 36.84864 30.35136 67.20512 67.20512 67.20512h347.31008c13.73184 0 25.2928-11.56608 25.2928-25.2928s-10.83904-26.01984-24.57088-26.01984z" p-id="642"></path><path d="M715.42784 200.17664H270.99648c-13.73184 0-25.2928 11.56096-25.2928 25.2928s11.56096 25.2928 25.2928 25.2928h444.43648c13.73184 0 25.28768-11.56096 25.28768-25.2928s-11.56096-25.2928-25.2928-25.2928z m25.2928 148.14208c0-13.73184-11.56096-25.2928-25.28768-25.2928H270.99648c-13.73184 0-25.2928 11.56096-25.2928 25.2928 0 13.73184 11.56096 25.2928 25.2928 25.2928h444.43648c13.72672 0 25.28768-11.56096 25.28768-25.2928zM247.14752 477.67552a27.45856 27.45856 0 1 0 54.92224 0 27.46368 27.46368 0 1 0-54.92224 0zM343.26016 477.67552a27.45856 27.45856 0 1 0 54.92224 0.02048v-0.02048a27.46368 27.46368 0 0 0-54.92224-0.0256v0.0256zM439.3728 477.67552a27.45856 27.45856 0 0 0 54.92224 0.02048v-0.02048a27.46368 27.46368 0 0 0-54.92224-0.0256v0.0256zM708.44928 844.29312c-92.96896 0-168.60672-75.63264-168.60672-168.60672s75.63264-168.61184 168.60672-168.61184 168.61184 75.63776 168.61184 168.61184-75.64288 168.60672-168.61184 168.60672z m-0.01024-293.12a123.5968 123.5968 0 0 0-48.41472 9.82528 124.70784 124.70784 0 0 0-54.80448 45.13792 123.82208 123.82208 0 0 0-11.45856 117.98528 124.672 124.672 0 0 0 45.1328 54.79936 123.79136 123.79136 0 0 0 69.56544 21.28896 123.5968 123.5968 0 0 0 48.41984-9.82528 124.7232 124.7232 0 0 0 54.79936-45.1328 123.22816 123.22816 0 0 0 21.23776-69.5552c0.03584-16.7424-3.25632-33.024-9.77408-48.43008a124.6464 124.6464 0 0 0-45.1328-54.79936 123.8528 123.8528 0 0 0-69.57056-21.29408z" p-id="643"></path><path d="M767.96928 762.32704a21.89824 21.89824 0 0 1-15.5904-6.45632l-64.9472-65.00352a21.9392 21.9392 0 0 1-6.4512-15.57504v-81.24416a22.0672 22.0672 0 0 1 22.0416-22.03648 22.0672 22.0672 0 0 1 22.03648 22.03648v72.12032l58.496 58.55232a21.90336 21.90336 0 0 1 6.4512 15.5904 21.888 21.888 0 0 1-6.47168 15.58016 21.88288 21.88288 0 0 1-15.5648 6.43584z" p-id="644"></path></svg>