<?xml version="1.0" standalone="no"?><!DOCTYPE svg PUBLIC "-//W3C//DTD SVG 1.1//EN" "http://www.w3.org/Graphics/SVG/1.1/DTD/svg11.dtd"><svg t="1567415897712" class="icon" viewBox="0 0 1024 1024" version="1.1" xmlns="http://www.w3.org/2000/svg" p-id="19438" xmlns:xlink="http://www.w3.org/1999/xlink" width="200" height="200"><defs><style type="text/css"></style></defs><path d="M923.306667 459.057404C920.252632 452.967298 914.036772 449.122807 907.22807 449.122807l-35.929825 0-179.649123 0 0-143.719298c0-49.529263-40.295298-89.824561-89.824561-89.824561l-179.649123 0c-49.529263 0-89.824561 40.295298-89.824561 89.824561l0 143.719298-179.649123 0-35.929825 0c-6.808702 0-13.024561 3.844491-16.078596 9.934596l-89.824561 179.649123c-2.784561 5.569123-2.479158 12.180211 0.790456 17.47986S20.713544 664.701754 26.947368 664.701754l71.859649 0 0 269.473684c0 49.529263 40.295298 89.824561 89.824561 89.824561l143.719298 0 143.719298 0 215.578947 0 143.719298 0c49.529263 0 89.824561-40.295298 89.824561-89.824561L925.192982 664.701754l71.859649 0c6.233825 0 12.000561-3.233684 15.28814-8.533333s3.575018-11.910737 0.790456-17.47986L923.306667 459.057404zM368.280702 305.403509c0-29.713965 24.180772-53.894737 53.894737-53.894737l179.649123 0c29.713965 0 53.894737 24.180772 53.894737 53.894737l0 143.719298-72.326737 0c11.407719-15.054596 18.432-33.594386 18.432-53.894737 0-9.934596-8.048281-17.964912-17.964912-17.964912l-143.719298 0c-9.916632 0-17.964912 8.030316-17.964912 17.964912 0 20.300351 7.024281 38.84014 18.432 53.894737L368.280702 449.122807 368.280702 305.403509zM461.177263 413.192982l101.627509 0c-7.419509 20.911158-27.396491 35.929825-50.822737 35.929825S468.596772 434.10414 461.177263 413.192982zM127.874246 485.052632 152.701754 485.052632l197.614035 0 312.266105 0-71.859649 143.719298L56.014596 628.77193 127.874246 485.052632zM134.736842 934.175439 134.736842 664.701754l467.087719 0c6.808702 0 13.024561-3.844491 16.078596-9.934596l55.781053-111.58007L673.684211 988.070175l-179.649123 0L494.035088 790.45614c0-6.233825-3.233684-12.000561-8.515368-15.28814-5.299649-3.287579-11.928702-3.557053-17.47986-0.790456L440.140351 788.336281l-27.899509-13.940772c-5.066105-2.533053-11.012491-2.533053-16.078596 0L368.280702 788.336281l-27.899509-13.940772c-5.569123-2.766596-12.180211-2.497123-17.47986 0.790456C317.619649 778.455579 314.385965 784.222316 314.385965 790.45614l0 197.614035-125.754386 0C158.917614 988.070175 134.736842 963.889404 134.736842 934.175439zM350.315789 988.070175l0-168.546807 9.934596 4.958316c5.04814 2.533053 11.012491 2.533053 16.078596 0l27.881544-13.940772 27.899509 13.940772c5.066105 2.533053 11.012491 2.533053 16.078596 0l9.916632-4.958316L458.105263 988.070175 350.315789 988.070175zM889.263158 934.175439c0 29.713965-24.180772 53.894737-53.894737 53.894737l-125.754386 0L709.614035 543.187088l55.781053 111.58007C768.449123 660.857263 774.664982 664.701754 781.473684 664.701754l107.789474 0L889.263158 934.175439zM792.576 628.77193l-71.859649-143.719298L871.298246 485.052632l24.827509 0 71.859649 143.719298L792.576 628.77193z" p-id="19439"></path><path d="M458.105263 323.368421m-17.964912 0a1 1 0 1 0 35.929825 0 1 1 0 1 0-35.929825 0Z" p-id="19440"></path><path d="M565.894737 323.368421m-17.964912 0a1 1 0 1 0 35.929825 0 1 1 0 1 0-35.929825 0Z" p-id="19441"></path><path d="M152.701754 413.192982l35.929825 0c0-99.058526-80.590596-179.649123-179.649123-179.649123l0 35.929825C88.225684 269.473684 152.701754 333.949754 152.701754 413.192982z" p-id="19442"></path><path d="M224.561404 251.508772l35.929825 0c0-128.772491-104.771368-233.54386-233.54386-233.54386l0 35.929825C135.904561 53.894737 224.561404 142.551579 224.561404 251.508772z" p-id="19443"></path><path d="M422.175439 179.649123l35.929825 0c0-89.15986-72.542316-161.684211-161.684211-161.684211l0 35.929825C365.765614 53.894737 422.175439 110.322526 422.175439 179.649123z" p-id="19444"></path><path d="M835.368421 413.192982l35.929825 0c0-79.243228 64.47607-143.719298 143.719298-143.719298l0-35.929825C915.959018 233.54386 835.368421 314.134456 835.368421 413.192982z" p-id="19445"></path><path d="M997.052632 53.894737 997.052632 17.964912c-128.772491 0-233.54386 104.771368-233.54386 233.54386l35.929825 0C799.438596 142.551579 888.095439 53.894737 997.052632 53.894737z" p-id="19446"></path><path d="M727.578947 53.894737 727.578947 17.964912c-89.141895 0-161.684211 72.524351-161.684211 161.684211l35.929825 0C601.824561 110.322526 658.234386 53.894737 727.578947 53.894737z" p-id="19447"></path><path d="M224.561404 287.438596l35.929825 0 0 35.929825-35.929825 0 0-35.929825Z" p-id="19448"></path><path d="M224.561404 359.298246l35.929825 0 0 35.929825-35.929825 0 0-35.929825Z" p-id="19449"></path><path d="M763.508772 287.438596l35.929825 0 0 35.929825-35.929825 0 0-35.929825Z" p-id="19450"></path><path d="M763.508772 359.298246l35.929825 0 0 35.929825-35.929825 0 0-35.929825Z" p-id="19451"></path><path d="M224.561404 17.964912l35.929825 0 0 35.929825-35.929825 0 0-35.929825Z" p-id="19452"></path><path d="M763.508772 17.964912l35.929825 0 0 35.929825-35.929825 0 0-35.929825Z" p-id="19453"></path><path d="M494.035088 143.719298l35.929825 0 0 35.929825-35.929825 0 0-35.929825Z" p-id="19454"></path><path d="M494.035088 71.859649l35.929825 0 0 35.929825-35.929825 0 0-35.929825Z" p-id="19455"></path><path d="M494.035088 0l35.929825 0 0 35.929825-35.929825 0 0-35.929825Z" p-id="19456"></path><path d="M314.385965 143.719298l35.929825 0 0 35.929825-35.929825 0 0-35.929825Z" p-id="19457"></path><path d="M673.684211 143.719298l35.929825 0 0 35.929825-35.929825 0 0-35.929825Z" p-id="19458"></path></svg>