<?xml version="1.0" standalone="no"?><!DOCTYPE svg PUBLIC "-//W3C//DTD SVG 1.1//EN" "http://www.w3.org/Graphics/SVG/1.1/DTD/svg11.dtd"><svg t="1557282578402" class="icon" style="" viewBox="0 0 1291 1024" version="1.1" xmlns="http://www.w3.org/2000/svg" p-id="7535" xmlns:xlink="http://www.w3.org/1999/xlink" width="252.1484375" height="200"><defs><style type="text/css"></style></defs><path d="M1231.99488 0l-384 0c-26.39872 0-63.2832 15.27808-81.94048 33.93536l-476.11904 476.11904c-18.67776 18.67776-18.67776 49.21344 0 67.8912l412.11904 412.11904c18.67776 18.67776 49.21344 18.67776 67.8912 0l476.11904-476.11904c18.65728-18.65728 33.93536-55.54176 33.93536-81.94048l0-384c0-26.39872-21.6064-48.00512-48.00512-48.00512zM992.01024 384c-53.02272 0-96.01024-42.98752-96.01024-96.01024s42.98752-96.01024 96.01024-96.01024 96.01024 42.98752 96.01024 96.01024-42.98752 96.01024-96.01024 96.01024z" p-id="7536"></path><path d="M128 544.01024l544.01024-544.01024-79.99488 0c-26.39872 0-63.2832 15.27808-81.94048 33.93536l-476.11904 476.11904c-18.67776 18.67776-18.67776 49.21344 0 67.8912l412.11904 412.11904c18.67776 18.67776 49.21344 18.67776 67.8912 0l30.06464-30.06464-416.01024-416.01024z" p-id="7537"></path></svg>