<?xml version="1.0" standalone="no"?><!DOCTYPE svg PUBLIC "-//W3C//DTD SVG 1.1//EN" "http://www.w3.org/Graphics/SVG/1.1/DTD/svg11.dtd"><svg t="1557283098098" class="icon" style="" viewBox="0 0 1024 1024" version="1.1" xmlns="http://www.w3.org/2000/svg" p-id="11986" xmlns:xlink="http://www.w3.org/1999/xlink" width="200" height="200"><defs><style type="text/css"></style></defs><path d="M362.267989 1006.549623c-122.06968 0-261.24091-5.10048-262.633223-5.151455-10.744691-0.397803-19.250488-9.224442-19.250487-19.976128V42.616941c0-11.039545 8.949578-19.990122 19.990122-19.990122h846.17687c10.854636 0 19.726252 8.662719 19.984125 19.514357 0.437784 18.427894 10.608758 452.450426-0.108947 552.037216C952.931118 719.581426 910.819927 812.818353 837.686065 879.215544c-72.946954 66.228274-177.487296 106.157543-319.594075 122.072679-31.178593 3.491275-83.605687 5.2614-155.824001 5.2614z m-241.903466-44.446037c42.349074 1.383316 147.333197 4.465793 241.902466 4.465793 70.737046 0 121.667879-1.687166 151.3752-5.013523 264.664219-29.639354 388.18818-140.788431 413.032903-371.65535 9.178465-85.287856 2.213906-439.869643 0.325839-527.293443H120.364523v899.496523z" p-id="11987"></path><path d="M762.986977 394.742941H279.523876c-11.040544 0-19.990122-8.950577-19.990122-19.990122s8.949578-19.990122 19.990122-19.990122h483.462102c11.040544 0 19.990122 8.950577 19.990122 19.990122s-8.948578 19.990122-19.989123 19.990122z" p-id="11988"></path><path d="M521.255427 846.21685c-11.040544 0-19.990122-8.949578-19.990123-19.990122V337.397278c0-11.039545 8.949578-19.990122 19.990123-19.990122s19.990122 8.950577 19.990122 19.990122v488.82945c0 11.040544-8.949578 19.990122-19.990122 19.990122z" p-id="11989"></path><path d="M762.447244 569.02882H280.066608c-11.040544 0-19.990122-8.949578-19.990122-19.990122s8.949578-19.990122 19.990122-19.990122h482.379636c11.040544 0 19.990122 8.949578 19.990122 19.990122s-8.949578 19.990122-19.989122 19.990122zM533.351449 361.122555a19.910162 19.910162 0 0 1-13.178488-4.965547l-172.934546-151.764007c-8.2979-7.282401-9.121493-19.912161-1.839091-28.21006 7.281402-8.298899 19.911161-9.121493 28.21106-1.839091l172.935545 151.764007c8.2979 7.282401 9.121493 19.912161 1.839092 28.21106a19.951141 19.951141 0 0 1-15.033572 6.803638z" p-id="11990"></path><path d="M522.647739 361.122555c-5.555255 0-11.081524-2.301863-15.032572-6.804638-7.282401-8.2979-6.458808-20.927659 1.839091-28.21006L682.391802 174.34385c8.299899-7.282401 20.930657-6.457809 28.21106 1.839091 7.282401 8.2979 6.458808 20.927659-1.839091 28.21006L535.825227 356.157008a19.910162 19.910162 0 0 1-13.177488 4.965547z" p-id="11991"></path></svg>