<?xml version="1.0" standalone="no"?><!DOCTYPE svg PUBLIC "-//W3C//DTD SVG 1.1//EN" "http://www.w3.org/Graphics/SVG/1.1/DTD/svg11.dtd"><svg t="1567581789289" class="icon" viewBox="0 0 1550 1024" version="1.1" xmlns="http://www.w3.org/2000/svg" p-id="6387" xmlns:xlink="http://www.w3.org/1999/xlink" width="302.734375" height="200"><defs><style type="text/css"></style></defs><path d="M767.503919 1023.994349C292.394094 1023.994349 0 511.993729 0 511.993729 0 511.992006 295.184936 0 767.503919 0c447.130773 0 781.616621 511.993729 781.616621 511.993729C1549.122263 511.992006 1211.842128 1023.994349 767.503919 1023.994349L767.503919 1023.994349zM771.6385 282.493497c-129.365859 0-234.177477 103.00963-234.177477 230.042896 0 127.119403 104.811618 230.129033 234.177477 230.129033 129.4675 0 234.275673-103.00963 234.275673-230.129033C1005.914173 385.503127 901.107723 282.493497 771.6385 282.493497L771.6385 282.493497zM773.08388 626.612917c-64.418488 0-116.595173-51.277413-116.595173-114.527883 0-63.240133 52.178407-114.527883 116.595173-114.527883 64.41332 0 116.59345 51.28775 116.59345 114.527883C889.67733 575.335504 837.498923 626.612917 773.08388 626.612917L773.08388 626.612917z" p-id="6388"></path></svg>